<svg id="Asus_IOT_PHM_icon_settings_big" xmlns="http://www.w3.org/2000/svg" width="40" height="40" viewBox="0 0 40 40">
    <defs>
        <clipPath id="clip-path">
            <path id="Oval" d="M0 20a20 20 0 1 1 20 20A20 20 0 0 1 0 20z" style="fill:none"/>
        </clipPath>
        <clipPath id="clip-path-2">
            <path id="Rectangle_13458" data-name="Rectangle 13458" style="fill:#1982f0" d="M0 0h24v24H0z"/>
        </clipPath>
        <style>
            
        </style>
    </defs>
    <g id="Oval-2" data-name="Oval" transform="translate(4.001 4)">
        <circle id="Oval-3" data-name="Oval" cx="16" cy="16" r="16" style="fill:#fff"/>
        <circle id="Oval-4" data-name="Oval" cx="16" cy="16" r="16" style="fill:none"/>
    </g>
    <g id="Group_32905" data-name="Group 32905" transform="translate(8 8)">
        <g id="Group_32905-2" data-name="Group 32905" style="clip-path:url(#clip-path-2)">
            <path id="Path_123822" data-name="Path 123822" d="m12.589 3.947.39 1.755a.946.946 0 0 0 .655.7 5.812 5.812 0 0 1 1.14.477.953.953 0 0 0 .455.121.941.941 0 0 0 .508-.148l1.529-.971.844.844-.965 1.516a.946.946 0 0 0-.031.965 5.936 5.936 0 0 1 .469 1.142.947.947 0 0 0 .7.652l1.769.395v1.2l-1.748.389a.949.949 0 0 0-.7.656 5.98 5.98 0 0 1-.478 1.156.946.946 0 0 0 .033.96l.965 1.518-.846.843-1.495-.952a.949.949 0 0 0-.969-.029 6.109 6.109 0 0 1-1.171.482.947.947 0 0 0-.646.7l-.387 1.742h-1.2l-.382-1.722a.947.947 0 0 0-.66-.7 5.958 5.958 0 0 1-1.178-.489.943.943 0 0 0-.962.033l-1.494.951-.844-.847.942-1.486a.947.947 0 0 0 .032-.962 5.941 5.941 0 0 1-.478-1.176.95.95 0 0 0-.7-.657l-1.736-.388v-1.205l1.731-.387a.948.948 0 0 0 .7-.657 5.776 5.776 0 0 1 .491-1.154.947.947 0 0 0-.031-.963l-.962-1.517.846-.844 1.514.966a.944.944 0 0 0 .964.032 5.7 5.7 0 0 1 1.14-.483A.949.949 0 0 0 11 5.7l.389-1.754zM13.028 3h-2.076a.54.54 0 0 0-.453.6l-.421 1.9a6.729 6.729 0 0 0-1.33.562l-1.64-1.051a.683.683 0 0 0-.465-.21.376.376 0 0 0-.276.108L4.9 6.377a.542.542 0 0 0 .1.742l1.04 1.639a6.738 6.738 0 0 0-.568 1.342l-1.872.418c-.332 0-.6.2-.6.455v2.074c0 .251.268.453.6.453l1.877.419a6.934 6.934 0 0 0 .555 1.363l-1.02 1.609a.54.54 0 0 0-.1.742L6.377 19.1a.382.382 0 0 0 .276.1.679.679 0 0 0 .467-.2l1.617-1.03a6.879 6.879 0 0 0 1.366.567l.414 1.865a.541.541 0 0 0 .453.6h2.076a.541.541 0 0 0 .454-.6l.419-1.886a7.021 7.021 0 0 0 1.352-.559l1.62 1.032a.684.684 0 0 0 .465.211.381.381 0 0 0 .277-.109l1.467-1.467a.545.545 0 0 0-.1-.743l-1.045-1.641a6.908 6.908 0 0 0 .555-1.34l1.889-.42c.332 0 .6-.2.6-.454v-2.071c0-.253-.341-.4-.6-.455l-1.909-.427a6.84 6.84 0 0 0-.546-1.325l1.044-1.639a.546.546 0 0 0 .1-.745L17.624 4.9a.39.39 0 0 0-.279-.107.67.67 0 0 0-.466.207l-1.65 1.049A6.7 6.7 0 0 0 13.9 5.5l-.421-1.9a.54.54 0 0 0-.454-.6" style="stroke:#1982f0;stroke-width:.2px;fill:#1982f0"/>
            <path id="Path_123823" data-name="Path 123823" d="M12 9a3 3 0 1 1-3 3 3 3 0 0 1 3-3m0-1a4 4 0 1 0 4 4 4 4 0 0 0-4-4" style="stroke:#1982f0;stroke-width:.2px;fill:#1982f0"/>
        </g>
    </g>
</svg>
