<svg id="Asus_IOT_PHM_icon_user_big" xmlns="http://www.w3.org/2000/svg" width="40" height="40" viewBox="0 0 40 40">
    <defs>
        <clipPath id="clip-path">
            <path id="Oval" d="M0 20a20 20 0 1 1 20 20A20 20 0 0 1 0 20z" style="fill:none"/>
        </clipPath>
        <style>
            
        </style>
    </defs>
    <g id="Oval-2" data-name="Oval" transform="translate(4.001 4)">
        <circle id="Oval-3" data-name="Oval" cx="16" cy="16" r="16" style="fill:#fff"/>
        <circle id="Oval-4" data-name="Oval" cx="16" cy="16" r="16" style="fill:none"/>
    </g>
    <path id="Shape" d="M1.25 16H0a8.013 8.013 0 0 1 5.383-7.564 4.625 4.625 0 1 1 5.234 0A8.015 8.015 0 0 1 16 16h-1.25a6.75 6.75 0 0 0-13.5 0zM8 1.25a3.375 3.375 0 1 0 3.375 3.375A3.379 3.379 0 0 0 8 1.25z" transform="translate(12 12)" style="fill:#1982f0"/>
</svg>
